# xmcd
#
# Track frame offsets: 
#        174
#        14783
#        27716
#        39248
#        53786
#        66891
#        83887
#        100289
#        110994
#        126097
#
# Disc length: 1880 seconds
#
# Revision: 1
# Processed by: cddbd v1.4PL0 Copyright (c) Steve Scherf et al.
# Submitted via: ExactAudioCopy v0.90a11
#
DISCID=8e07560a
DTITLE=Tom T. Hall - Places I've Done Time
DYEAR=1900
DGENRE=
TTITLE0=What Have You Got To Lose
TTITLE1=I Couldn't Live In Southern California
TTITLE2=The Grocery Truck
TTITLE3=The Man Who Shot Himself
TTITLE4=Son Of Clayton Delaney
TTITLE5=Mr Bo Jangles
TTITLE6=The Three Sofa Story
TTITLE7=The Great East Broadway Onion Championship Of 1978
TTITLE8=Hat Full Of Feathers
TTITLE9=Gimme Peace
EXTD=
EXTT0=
EXTT1=
EXTT2=
EXTT3=
EXTT4=
EXTT5=
EXTT6=
EXTT7=
EXTT8=
EXTT9=
PLAYORDER=
